<svg width="391" height="132" viewBox="0 0 391 132" fill="none" xmlns="http://www.w3.org/2000/svg">
<path d="M56.4 7.39999V0.199993H0.528001V101H8.16V54.92H54.672V47.72H8.16V7.39999H56.4ZM77.2193 11.576C80.3873 11.576 82.9793 8.98399 82.9793 5.816C82.9793 2.79199 80.3873 0.199993 77.2193 0.199993C74.0513 0.199993 71.4593 2.79199 71.4593 5.816C71.4593 8.98399 74.0513 11.576 77.2193 11.576ZM73.6193 101H80.8193V29H73.6193V101ZM166.946 29V45.704C161.042 34.616 149.954 27.416 135.986 27.416C115.394 27.416 98.6899 43.688 98.6899 65C98.6899 86.312 115.394 102.584 135.986 102.584C149.954 102.584 161.042 95.384 166.946 84.296V97.544C166.946 113.96 156.29 124.472 138.29 124.472C122.45 124.472 114.386 118.136 110.642 110.504L104.306 114.104C109.49 124.616 121.442 131.384 138.29 131.384C158.162 131.384 174.146 119.144 174.146 97.544V29H166.946ZM136.418 95.672C119.282 95.672 105.89 82.136 105.89 65C105.89 47.864 119.282 34.328 136.418 34.328C153.554 34.328 166.946 47.864 166.946 65C166.946 82.136 153.554 95.672 136.418 95.672ZM273.281 27.416C263.633 27.416 254.417 32.024 249.233 42.104C245.489 32.6 237.281 27.416 226.769 27.416C217.553 27.416 208.913 31.448 203.585 41.384V29H196.385V101H203.585V60.824C203.585 42.392 214.097 34.328 225.905 34.328C236.993 34.328 244.337 41.672 244.337 55.352V101H251.537V60.824C251.537 42.392 261.041 34.328 273.137 34.328C284.369 34.328 292.289 41.672 292.289 55.352V101H299.489V55.352C299.489 37.352 288.545 27.416 273.281 27.416ZM383.214 29V45.272C377.166 34.472 366.078 27.416 352.254 27.416C331.806 27.416 314.958 43.688 314.958 65C314.958 86.312 331.806 102.584 352.254 102.584C366.078 102.584 377.166 95.528 383.214 84.728V101H390.558V29H383.214ZM352.83 95.672C335.694 95.672 322.302 82.136 322.302 65C322.302 47.864 335.694 34.328 352.83 34.328C369.966 34.328 383.214 47.864 383.214 65C383.214 82.136 369.966 95.672 352.83 95.672Z" fill="white" fill-opacity="0.6"/>
</svg>
